<svg width="29" height="30" viewBox="0 0 29 30" fill="none" xmlns="http://www.w3.org/2000/svg">
<path d="M0.759199 29.5361L1.7192 24.1361C2.2392 21.0961 3.7992 19.0161 5.8792 17.5761C8.0392 16.1361 10.4392 15.2161 12.7992 14.4161C14.0392 13.9761 15.1592 13.5761 16.2392 13.2161C18.3992 12.4161 19.8792 11.4561 20.1592 9.89613C20.5192 7.81613 19.2792 6.57613 16.6392 6.57613C13.6792 6.57613 12.2792 8.01613 11.7992 10.6961L11.6392 11.6561H4.1592L4.3992 10.2961C5.5192 3.85613 9.4792 0.336132 17.0392 0.336132C19.6792 0.336132 21.7592 0.776131 23.4392 1.61613C26.7992 3.33613 28.1992 6.41613 27.5192 10.4961C27.0392 13.3761 25.4392 15.2961 23.3592 16.6561C21.2792 17.9761 18.8792 18.8161 16.6792 19.4561L13.7592 20.3761C11.9992 21.0161 10.7192 21.6961 10.5192 22.8561H25.1592L23.9992 29.5361H0.759199Z" fill="url(#paint0_linear_738_7955)"/>
<defs>
<linearGradient id="paint0_linear_738_7955" x1="14.547" y1="0.588764" x2="14.547" y2="29.6414" gradientUnits="userSpaceOnUse">
<stop stop-color="#E767A9"/>
<stop offset="0.435" stop-color="#F0D9CB"/>
<stop offset="1" stop-color="#B65CDE"/>
</linearGradient>
</defs>
</svg>
