<svg width="30" height="32" viewBox="0 0 30 32" fill="none" xmlns="http://www.w3.org/2000/svg">
<path d="M13.5213 31.7599C4.95327 31.7599 0.92127 27.9379 2.13927 21.3439C2.13927 21.3439 2.26527 20.8399 2.30727 20.4619H10.2033L10.1193 20.9659C9.65727 23.4019 11.1273 24.7879 14.2773 24.7879C17.2593 24.7879 18.8553 23.7379 19.1913 21.7219C19.5693 19.4539 18.3513 18.6979 15.5373 18.6979H12.8073L13.8153 13.1539H16.5453C19.3173 13.1539 20.5353 12.3139 20.9133 10.3399C21.2073 8.40787 20.0313 7.18987 17.0493 7.18987C14.0673 7.18987 12.5973 8.40787 12.1353 10.7599L12.0513 11.0959H4.36527C4.40727 10.7179 4.49127 10.4239 4.49127 10.4239C5.62527 4.08187 9.82527 0.511874 17.8893 0.511874C20.4933 0.511874 22.6353 0.889874 24.3993 1.68787C27.9273 3.28387 29.5233 6.09787 28.8513 9.87787C28.3473 12.8599 26.7933 14.7919 24.0213 15.7579C26.4993 16.9339 27.7593 19.2019 27.0873 23.1919C26.1213 28.4839 22.0893 31.7599 13.5213 31.7599Z" fill="url(#paint0_linear_738_7970)"/>
<defs>
<linearGradient id="paint0_linear_738_7970" x1="15.4562" y1="0.487664" x2="15.4562" y2="30.8035" gradientUnits="userSpaceOnUse">
<stop stop-color="#E767A9"/>
<stop offset="0.435" stop-color="#F0D9CB"/>
<stop offset="1" stop-color="#B65CDE"/>
</linearGradient>
</defs>
</svg>
