<svg width="155" height="155" viewBox="0 0 155 155" fill="none" xmlns="http://www.w3.org/2000/svg">
<rect width="155" height="155" rx="77.5" fill="url(#paint0_linear_686_7502)" fill-opacity="0.6"/>
<rect x="28.2979" y="70.5693" width="12.633" height="45.8777" rx="2.65957" fill="white"/>
<rect x="46.25" y="55.9414" width="12.633" height="60.5053" rx="2.65957" fill="white"/>
<rect x="64.2021" y="63.2554" width="12.633" height="53.1915" rx="2.65957" fill="white"/>
<rect x="82.1543" y="45.9683" width="12.633" height="70.4787" rx="2.65957" fill="white"/>
<rect x="100.106" y="34" width="12.633" height="82.4468" rx="2.65957" fill="white"/>
<path d="M43.9546 113.51L30.299 97.2642C28.0279 94.5624 24.083 94.0125 21.1596 95.9901C17.8359 98.2384 17.1275 102.839 19.6211 105.983L39.0248 130.449C42.315 134.597 48.6592 134.449 51.7521 130.152L75.2912 97.4448C76.1552 96.2443 77.9795 96.3688 78.6724 97.6755L93.4076 125.462C96.4025 131.109 104.491 131.118 107.498 125.476L130.537 82.2484C131.635 80.1871 134.368 79.6866 136.126 81.2248C136.886 81.8903 138.079 81.3842 138.129 80.3749L139.602 50.6676C139.729 48.1093 136.521 46.8679 134.893 48.8451L113.344 75.0117C112.838 75.6264 113.275 76.5531 114.071 76.5531C116.192 76.5531 117.557 78.8004 116.581 80.6824L102.093 108.605C101.372 109.994 99.4052 110.05 98.6067 108.704L83.3124 82.9222C80.3974 78.0084 73.4136 77.6612 70.0257 82.2617L47.0877 113.409C46.3221 114.449 44.7854 114.498 43.9546 113.51Z" fill="url(#paint1_linear_686_7502)"/>
<defs>
<linearGradient id="paint0_linear_686_7502" x1="77.6396" y1="-28.0676" x2="77.6396" y2="223.284" gradientUnits="userSpaceOnUse">
<stop stop-color="#E11C93"/>
<stop offset="0.76" stop-color="#F0D9CA"/>
</linearGradient>
<linearGradient id="paint1_linear_686_7502" x1="77.5" y1="42.6436" x2="77.5" y2="138.721" gradientUnits="userSpaceOnUse">
<stop stop-color="#7B0EFD"/>
<stop offset="1" stop-color="#490897"/>
</linearGradient>
</defs>
</svg>
