<svg width="155" height="155" viewBox="0 0 155 155" fill="none" xmlns="http://www.w3.org/2000/svg">
<rect width="155" height="155" rx="77.5" fill="url(#paint0_linear_686_7497)" fill-opacity="0.6"/>
<path d="M39.3186 79.9999H33.9834C31.3889 79.9999 29.2856 77.8966 29.2856 75.3021V43.269C29.2856 40.6745 31.3889 38.5713 33.9834 38.5713H66.7581C69.3526 38.5713 71.4558 40.6745 71.4558 43.269V49.0028C71.4558 51.2417 73.2709 53.0568 75.5099 53.0568C76.7772 53.0568 77.9716 53.6494 78.7381 54.6586L80.3059 56.7226C81.4239 58.1943 81.575 60.1848 80.692 61.8084L79.7261 63.5847C79.0611 64.8076 77.888 65.6726 76.5231 65.9464L75.2296 66.2059C73.035 66.6461 71.4558 68.5735 71.4558 70.8118V75.3021C71.4558 77.8966 69.3526 79.9999 66.7581 79.9999H59.6898C57.0954 79.9999 54.9921 77.8966 54.9921 75.3021V74.2776C54.9921 72.4641 53.9484 70.8126 52.3104 70.0344L51.5202 69.659C50.2446 69.0529 48.7639 69.0529 47.4882 69.659L46.6981 70.0344C45.0601 70.8126 44.0163 72.4641 44.0163 74.2776V75.3021C44.0163 77.8966 41.9131 79.9999 39.3186 79.9999Z" fill="white"/>
<path d="M109.174 84.4064L114.383 84.3048C117.013 84.2536 119.172 86.3713 119.172 89.0017L119.172 122.139C119.172 124.301 117.419 126.054 115.257 126.054L80.6341 126.054C78.3564 126.054 76.5596 124.117 76.7303 121.846L77.2474 114.965C77.4522 112.239 75.296 109.915 72.5628 109.915L70.8961 109.915C69.6549 109.915 68.4681 109.406 67.6133 108.506C65.5407 106.324 66.1337 102.765 68.8018 101.373L69.0838 101.226C69.7546 100.876 70.5 100.693 71.2566 100.693L72.9291 100.693C75.5236 100.693 77.6268 98.5898 77.6268 95.9954L77.6268 87.7348C77.6268 85.7889 79.2043 84.2115 81.1501 84.2115L84.8881 84.2115L90.1733 84.2115C92.1192 84.2115 93.6966 85.7889 93.6966 87.7348L93.6966 90.3181C93.6966 92.1666 94.7807 93.8434 96.4665 94.602L97.1925 94.9287C98.4769 95.5068 99.9529 95.478 101.214 94.8503L101.984 94.4668C103.61 93.6578 104.623 91.9848 104.588 90.1697L104.569 89.1948C104.518 86.6008 106.58 84.457 109.174 84.4064Z" fill="white"/>
<path d="M72.1087 115.584L72.1632 120.793C72.1907 123.424 70.0535 125.564 67.4233 125.54L33.1076 125.23C30.5132 125.207 28.429 123.085 28.4524 120.491L28.7462 87.9733C28.7701 85.3195 30.986 83.2124 33.6376 83.322L40.1253 83.59C42.7769 83.6996 44.9928 81.5925 45.0168 78.9387L45.0207 78.508C45.0331 77.1357 45.645 75.8374 46.6955 74.9543L47.2736 74.4684C48.8259 73.1637 51.1181 73.2628 52.5519 74.6966C53.1514 75.2962 53.5397 76.0745 53.6582 76.9141L54.0662 79.8053C54.3898 82.0987 56.3366 83.8141 58.6526 83.8462L67.914 83.9748C70.4994 84.0107 72.5697 86.1291 72.5463 88.7145L72.523 91.3007L72.4858 95.4113C72.4624 98.0057 70.3403 100.09 67.7459 100.066L66.337 100.054C64.4885 100.037 62.8021 101.106 62.0283 102.785L61.695 103.508C61.1054 104.787 61.1208 106.263 61.7371 107.53L62.1136 108.304C62.9079 109.936 64.5717 110.965 66.387 110.946L67.3621 110.936C69.9564 110.908 72.0816 112.99 72.1087 115.584Z" fill="white"/>
<path d="M108.958 26.9214L113.007 23.6436C115.052 21.9888 118.056 22.3348 119.671 24.4111L140.739 51.5005C142.331 53.5486 141.962 56.5 139.914 58.0928L114.244 78.0557C112.149 79.6849 109.122 79.2565 107.561 77.1101L103.742 71.8586C102.182 69.7122 99.1539 69.2838 97.059 70.913L96.4515 71.3854C95.5255 72.1056 94.3635 72.4532 93.1941 72.3599L90.8076 72.1695C87.9183 71.939 85.925 69.1726 86.6208 66.3589L87.1012 64.4163C87.3544 63.3923 87.945 62.4833 88.7777 61.8357L89.6608 61.1489C91.7088 59.5562 92.0779 56.6047 90.4852 54.5567L86.8191 49.8425C85.2263 47.7945 85.5955 44.843 87.6435 43.2503L89.6671 41.6766L92.9121 39.153C94.9602 37.5602 97.9117 37.9293 99.5044 39.9774L100.369 41.0896C101.504 42.5488 103.389 43.2069 105.186 42.7709L105.959 42.5831C107.328 42.2509 108.476 41.322 109.086 40.0525L109.458 39.2767C110.245 37.6404 110.018 35.6975 108.876 34.2864L108.262 33.5285C106.63 31.5119 106.941 28.5538 108.958 26.9214Z" fill="url(#paint1_linear_686_7497)"/>
<defs>
<linearGradient id="paint0_linear_686_7497" x1="77.6396" y1="-28.0676" x2="77.6396" y2="223.284" gradientUnits="userSpaceOnUse">
<stop stop-color="#E11C93"/>
<stop offset="0.76" stop-color="#F0D9CA"/>
</linearGradient>
<linearGradient id="paint1_linear_686_7497" x1="94.2297" y1="37.8013" x2="122.295" y2="72.4728" gradientUnits="userSpaceOnUse">
<stop stop-color="#7B0EFD"/>
<stop offset="1" stop-color="#490897"/>
</linearGradient>
</defs>
</svg>
